<?xml version="1.0" encoding="utf-8"?>
<svg version="1.1" xmlns="http://www.w3.org/2000/svg" xmlns:xlink="http://www.w3.org/1999/xlink" x="0px" y="0px" width="1200px" height="390px" viewBox="0 0 1200 390" enable-background="new 0 0 1200 390" xml:space="preserve">
	<path opacity="0.9" fill="#B6000B" d="M1172.7,348.8l-58.2-183.9L1029,390h171C1186.9,387.6,1172.7,348.8,1172.7,348.8"/>
	<polygon opacity="0.95" fill="#DD3A46" points="1114.5,164.8 1166.7,0 1011.4,0"/>
	<path fill="#C30019" d="M1029,390c13.5,0,26-37.6,27.2-41.2c1.2-3.7,58.2-183.9,58.2-183.9l-34.1-107.7 c-13-44.5-35.2-57.1-69-57.1H837.8v390H1029z"/>
	<path fill="#D5002B" d="M945.1,333.9L862.3,41c0,0-8.9-35.4-22.4-41L0,0v390h1018.3C984.5,390,954.6,370.7,945.1,333.9"/>
</svg>